<?xml version="1.0" encoding="utf-8"?>
<!-- Generator: Adobe Illustrator 25.2.3, SVG Export Plug-In . SVG Version: 6.00 Build 0)  -->
<svg version="1.1" id="Layer_1" xmlns="http://www.w3.org/2000/svg" xmlns:xlink="http://www.w3.org/1999/xlink" x="0px" y="0px"
	 viewBox="0 0 100 100" style="enable-background:new 0 0 100 100;" xml:space="preserve">
<style type="text/css">
	.st0{opacity:0.3;fill:#FFFFFF;stroke:#F6F6F6;stroke-width:1.9025;stroke-miterlimit:10;}
	.st1{fill:none;stroke:#F6F6F6;stroke-width:1.9025;stroke-miterlimit:10;}
	.st2{opacity:0.3;fill:#FFFFFF;stroke:#F6F6F6;stroke-width:1.6215;stroke-miterlimit:10;}
	.st3{fill:none;stroke:#F6F6F6;stroke-width:1.6215;stroke-miterlimit:10;}
	.st4{fill:none;stroke:#F6F6F6;stroke-width:1.1411;stroke-miterlimit:10;}
	.st5{fill:none;stroke:#F6F6F6;stroke-width:1.4016;stroke-miterlimit:10;}
	.st6{opacity:0.3;fill:#FFFFFF;stroke:#F6F6F6;stroke-width:1.4016;stroke-miterlimit:10;}
</style>
<g>
	<ellipse class="st0" cx="18.43" cy="16.67" rx="10.22" ry="6.01"/>
	<ellipse class="st1" cx="18.43" cy="16.67" rx="10.22" ry="6.01"/>
	<path class="st2" d="M83.05,9.49c-1.04,0-2.05,0.12-2.99,0.32h-1.02c-1.93-2.03-5.6-3.4-9.82-3.4c-6.23,0-11.27,2.98-11.27,6.66
		s5.05,6.66,11.27,6.66c1.49,0,2.9-0.17,4.2-0.48h1.02c1.63,2.11,4.87,3.56,8.61,3.56c5.38,0,9.73-2.98,9.73-6.66
		S88.43,9.49,83.05,9.49z"/>
	<path class="st3" d="M83.05,9.49c-1.04,0-2.05,0.12-2.99,0.32h-1.02c-1.93-2.03-5.6-3.4-9.82-3.4c-6.23,0-11.27,2.98-11.27,6.66
		s5.05,6.66,11.27,6.66c1.49,0,2.9-0.17,4.2-0.48h1.02c1.63,2.11,4.87,3.56,8.61,3.56c5.38,0,9.73-2.98,9.73-6.66
		S88.43,9.49,83.05,9.49z"/>
	<line class="st4" x1="35.79" y1="94" x2="61.79" y2="94"/>
	<g>
		<circle class="st5" cx="48.79" cy="58.28" r="25.69"/>
		<line class="st5" x1="48.79" y1="58.28" x2="36.29" y2="93.5"/>
		<line class="st5" x1="61.29" y1="93.5" x2="48.79" y2="58.28"/>
		<circle class="st6" cx="48.79" cy="32.6" r="5.31"/>
		<circle class="st6" cx="74.47" cy="58.28" r="5.31"/>
		<circle class="st6" cx="23.1" cy="58.28" r="5.31"/>
		<circle class="st6" cx="30.19" cy="40.57" r="5.31"/>
		<circle class="st6" cx="67.39" cy="40.57" r="5.31"/>
		<circle class="st6" cx="67.39" cy="76.88" r="5.31"/>
		<circle class="st6" cx="30.19" cy="76" r="5.31"/>
		<circle class="st5" cx="48.79" cy="32.6" r="5.31"/>
		<circle class="st5" cx="74.47" cy="58.28" r="5.31"/>
		<circle class="st5" cx="23.1" cy="58.28" r="5.31"/>
		<circle class="st5" cx="30.19" cy="40.57" r="5.31"/>
		<circle class="st5" cx="67.39" cy="40.57" r="5.31"/>
		<circle class="st5" cx="67.39" cy="76.88" r="5.31"/>
		<circle class="st5" cx="30.19" cy="76" r="5.31"/>
	</g>
</g>
</svg>
