<?xml version="1.0" encoding="utf-8"?>
<!-- Generator: Adobe Illustrator 25.2.3, SVG Export Plug-In . SVG Version: 6.00 Build 0)  -->
<svg version="1.1" id="Layer_1" xmlns="http://www.w3.org/2000/svg" xmlns:xlink="http://www.w3.org/1999/xlink" x="0px" y="0px"
	 viewBox="0 0 100 100" style="enable-background:new 0 0 100 100;" xml:space="preserve">
<style type="text/css">
	.st0{opacity:0.3;fill:#FFFFFF;stroke:#F6F6F6;stroke-width:1.7775;stroke-miterlimit:10;}
	.st1{fill:none;stroke:#F6F6F6;stroke-width:1.7775;stroke-miterlimit:10;}
	.st2{fill:none;stroke:#F6F6F6;stroke-width:1.8686;stroke-miterlimit:10;}
	.st3{fill:none;stroke:#F6F6F6;stroke-width:2.2827;stroke-miterlimit:10;}
</style>
<g>
	<ellipse class="st0" cx="19.53" cy="14.28" rx="9.55" ry="5.62"/>
	<ellipse class="st1" cx="19.53" cy="14.28" rx="9.55" ry="5.62"/>
	<path class="st2" d="M5.85,61.29c0,0,4.83-36.73,24.84-36.73s22.81,31.12,22.81,31.12"/>
	<path class="st2" d="M44.91,32.1c4.18-9.65,11.38-19.71,23.22-19.71C90.88,12.4,95,49.73,95,49.73"/>
	<path class="st2" d="M44.91,32.1"/>
	<path class="st2" d="M39.77,49.55"/>
	<path class="st3" d="M21.11,57.56c0,0-7.67,16.31,16.61,19.37c0,0,19.17,0,20.45,14.27"/>
	<path class="st3" d="M43.54,53.82c0,0-7.67,16.31,16.61,19.37c0,0,19.17,0,20.45,14.27"/>
</g>
</svg>
