<?xml version="1.0" encoding="utf-8"?>
<!-- Generator: Adobe Illustrator 25.2.3, SVG Export Plug-In . SVG Version: 6.00 Build 0)  -->
<svg version="1.1" id="Layer_1" xmlns="http://www.w3.org/2000/svg" xmlns:xlink="http://www.w3.org/1999/xlink" x="0px" y="0px"
	 viewBox="0 0 100 100" style="enable-background:new 0 0 100 100;" xml:space="preserve">
<style type="text/css">
	.st0{fill:none;stroke:#F6F6F6;stroke-width:1.9341;stroke-miterlimit:10;}
</style>
<g>
	<path class="st0" d="M27.32,14.17h48.67c2.76,0,5,2.24,5,5v48.67c0,2.76-2.24,5-5,5H27.32c-2.76,0-5-2.24-5-5V19.17
		C22.32,16.41,24.56,14.17,27.32,14.17z"/>
	<line class="st0" x1="22.32" y1="20.28" x2="80.98" y2="20.28"/>
	<polyline class="st0" points="80.98,44.73 51.65,59.39 50.43,59.39 22.32,44.73 	"/>
	<path class="st0" d="M69.76,56.95h5.33c0.55,0,1,0.45,1,1v5.33c0,0.55-0.45,1-1,1h-5.33c-0.55,0-1-0.45-1-1v-5.33
		C68.76,57.4,69.21,56.95,69.76,56.95z"/>
	<path class="st0" d="M33.54,56.95h-5.33c-0.55,0-1,0.45-1,1v5.33c0,0.55,0.45,1,1,1h5.33c0.55,0,1-0.45,1-1v-5.33
		C34.54,57.4,34.09,56.95,33.54,56.95z"/>
	<line class="st0" x1="30.87" y1="72.84" x2="17.43" y2="86.28"/>
	<line class="st0" x1="69.98" y1="72.84" x2="83.43" y2="86.28"/>
	<line class="st0" x1="25.98" y1="77.73" x2="74.87" y2="77.73"/>
</g>
</svg>
