<?xml version="1.0" encoding="utf-8"?>
<!-- Generator: Adobe Illustrator 25.2.3, SVG Export Plug-In . SVG Version: 6.00 Build 0)  -->
<svg version="1.1" id="Layer_1" xmlns="http://www.w3.org/2000/svg" xmlns:xlink="http://www.w3.org/1999/xlink" x="0px" y="0px"
	 viewBox="0 0 100 100" style="enable-background:new 0 0 100 100;" xml:space="preserve">
<style type="text/css">
	.st0{fill:none;stroke:#F6F6F6;stroke-width:1.1663;stroke-miterlimit:10;}
	.st1{fill:none;stroke:#F6F6F6;stroke-width:2.7963;stroke-miterlimit:10;}
	.st2{opacity:0.3;fill:#FFFFFF;}
	.st3{fill:none;stroke:#F6F6F6;stroke-width:1.3981;stroke-miterlimit:10;}
	.st4{opacity:0.3;fill:#FFFFFF;stroke:#F6F6F6;stroke-width:1.9025;stroke-miterlimit:10;}
	.st5{fill:none;stroke:#F6F6F6;stroke-width:1.9025;stroke-miterlimit:10;}
</style>
<path class="st0" d="M28.56,44.08"/>
<path class="st0" d="M35.78,44.08"/>
<g>
	<path class="st1" d="M43.32,36.43"/>
	<path class="st1" d="M26.55,53.21"/>
	<path class="st1" d="M79.68,51.81v30.76c0,3.86-3.13,6.99-6.99,6.99H33.54c-3.86,0-6.99-3.13-6.99-6.99V53.21"/>
	<path class="st1" d="M64.13,36.43"/>
	<path class="st1" d="M43.32,36.43"/>
	<polyline class="st1" points="89.46,61.6 54.51,26.64 53.11,26.64 43.32,36.43 18.16,61.6 	"/>
	<path class="st2" d="M48.82,42.72h9.98c1.1,0,2,0.9,2,2v9.98c0,1.1-0.9,2-2,2h-9.98c-1.1,0-2-0.9-2-2v-9.98
		C46.82,43.62,47.71,42.72,48.82,42.72z"/>
	<path class="st3" d="M48.82,42.72h9.98c1.1,0,2,0.9,2,2v9.98c0,1.1-0.9,2-2,2h-9.98c-1.1,0-2-0.9-2-2v-9.98
		C46.82,43.62,47.71,42.72,48.82,42.72z"/>
	<path class="st2" d="M47.52,89.56V72.08c0-2.32,2.82-4.19,6.29-4.19h0c3.47,0,6.29,1.88,6.29,4.19v17.48"/>
	<path class="st3" d="M47.52,89.56V72.08c0-2.32,2.82-4.19,6.29-4.19h0c3.47,0,6.29,1.88,6.29,4.19v17.48"/>
	<line class="st3" x1="53.81" y1="56.01" x2="53.81" y2="42.02"/>
	<line class="st3" x1="60.8" y1="49.71" x2="46.82" y2="49.71"/>
</g>
<ellipse class="st4" cx="85.07" cy="24.84" rx="10.22" ry="6.01"/>
<ellipse class="st5" cx="85.07" cy="24.84" rx="10.22" ry="6.01"/>
<path class="st4" d="M35.03,13.77c-1.22,0-2.4,0.14-3.51,0.38h-1.2c-2.27-2.38-6.57-3.99-11.52-3.99c-7.3,0-13.22,3.5-13.22,7.81
	s5.92,7.81,13.22,7.81c1.74,0,3.4-0.2,4.93-0.57h1.2c1.91,2.48,5.72,4.17,10.1,4.17c6.31,0,11.42-3.5,11.42-7.81
	S41.33,13.77,35.03,13.77z"/>
<path class="st5" d="M35.03,13.77c-1.22,0-2.4,0.14-3.51,0.38h-1.2c-2.27-2.38-6.57-3.99-11.52-3.99c-7.3,0-13.22,3.5-13.22,7.81
	s5.92,7.81,13.22,7.81c1.74,0,3.4-0.2,4.93-0.57h1.2c1.91,2.48,5.72,4.17,10.1,4.17c6.31,0,11.42-3.5,11.42-7.81
	S41.33,13.77,35.03,13.77z"/>
</svg>
