<svg id="Layer_1" data-name="Layer 1" xmlns="http://www.w3.org/2000/svg" viewBox="0 0 91.62 81.75"><defs><style>.cls-1,.cls-2,.cls-4,.cls-6{fill:none;}.cls-1,.cls-2,.cls-3,.cls-4,.cls-5,.cls-6{stroke:#5a5c71;stroke-miterlimit:10;}.cls-1{stroke-width:1.17px;}.cls-2{stroke-width:2.8px;}.cls-3,.cls-5{fill:#fff;opacity:0.3;}.cls-4{stroke-width:1.4px;}.cls-5,.cls-6{stroke-width:1.9px;}</style></defs><path class="cls-1" d="M28.56,44.08" transform="translate(-4.62 -9.21)"/><path class="cls-1" d="M35.78,44.08" transform="translate(-4.62 -9.21)"/><path class="cls-2" d="M43.32,36.43" transform="translate(-4.62 -9.21)"/><path class="cls-2" d="M26.55,53.21" transform="translate(-4.62 -9.21)"/><path class="cls-2" d="M79.68,51.81V82.57a7,7,0,0,1-7,7H33.54a7,7,0,0,1-7-7V53.21" transform="translate(-4.62 -9.21)"/><path class="cls-2" d="M64.13,36.43" transform="translate(-4.62 -9.21)"/><path class="cls-2" d="M43.32,36.43" transform="translate(-4.62 -9.21)"/><polyline class="cls-2" points="84.84 52.39 49.89 17.43 48.49 17.43 38.7 27.22 13.54 52.39"/><rect class="cls-3" x="42.2" y="33.51" width="13.98" height="13.98" rx="2"/><rect class="cls-4" x="42.2" y="33.51" width="13.98" height="13.98" rx="2"/><path class="cls-3" d="M47.52,89.56V72.08c0-2.31,2.81-4.19,6.29-4.19h0c3.47,0,6.29,1.88,6.29,4.19V89.56" transform="translate(-4.62 -9.21)"/><path class="cls-4" d="M47.52,89.56V72.08c0-2.31,2.81-4.19,6.29-4.19h0c3.47,0,6.29,1.88,6.29,4.19V89.56" transform="translate(-4.62 -9.21)"/><line class="cls-4" x1="49.19" y1="46.79" x2="49.19" y2="32.81"/><line class="cls-4" x1="56.18" y1="40.5" x2="42.2" y2="40.5"/><ellipse class="cls-5" cx="80.45" cy="15.63" rx="10.22" ry="6.01"/><ellipse class="cls-6" cx="80.45" cy="15.63" rx="10.22" ry="6.01"/><path class="cls-5" d="M35,13.77a15.87,15.87,0,0,0-3.51.38h-1.2c-2.27-2.38-6.58-4-11.52-4-7.31,0-13.23,3.5-13.23,7.82s5.92,7.81,13.23,7.81a21.42,21.42,0,0,0,4.92-.56h1.2C26.84,27.71,30.64,29.4,35,29.4c6.3,0,11.42-3.5,11.42-7.82S41.33,13.77,35,13.77Z" transform="translate(-4.62 -9.21)"/><path class="cls-6" d="M35,13.77a15.87,15.87,0,0,0-3.51.38h-1.2c-2.27-2.38-6.58-4-11.52-4-7.31,0-13.23,3.5-13.23,7.82s5.92,7.81,13.23,7.81a21.42,21.42,0,0,0,4.92-.56h1.2C26.84,27.71,30.64,29.4,35,29.4c6.3,0,11.42-3.5,11.42-7.82S41.33,13.77,35,13.77Z" transform="translate(-4.62 -9.21)"/></svg>