<svg xmlns="http://www.w3.org/2000/svg" viewBox="0 0 97.22 86.83"><defs><style>.cls-1,.cls-3{fill:none;stroke:#f6f6f6;stroke-miterlimit:10;}.cls-1{stroke-width:2.8px;}.cls-2{fill:#fff;opacity:0.3;}.cls-3{stroke-width:1.4px;}</style></defs><g id="Layer_2" data-name="Layer 2"><g id="Layer_2-2" data-name="Layer 2"><path class="cls-1" d="M83.15,35V76.09a9.34,9.34,0,0,1-9.33,9.34H21.53a9.34,9.34,0,0,1-9.34-9.34V36.88"/><polyline class="cls-1" points="96.23 48.08 49.54 1.4 47.67 1.4 34.6 14.47 0.99 48.08"/><rect class="cls-2" x="39.27" y="22.87" width="18.67" height="18.67" rx="2"/><rect class="cls-3" x="39.27" y="22.87" width="18.67" height="18.67" rx="2"/><path class="cls-2" d="M40.2,85.43V62.09c0-3.09,3.77-5.6,8.41-5.6h0c4.64,0,8.4,2.51,8.4,5.6V85.43"/><path class="cls-3" d="M40.2,85.43V62.09c0-3.09,3.77-5.6,8.41-5.6h0c4.64,0,8.4,2.51,8.4,5.6V85.43"/><line class="cls-3" x1="48.61" y1="40.61" x2="48.61" y2="21.94"/><line class="cls-3" x1="57.94" y1="32.21" x2="39.27" y2="32.21"/></g></g></svg>