<svg id="Layer_1" data-name="Layer 1" xmlns="http://www.w3.org/2000/svg" viewBox="0 0 86.34 88.96"><defs><style>.cls-1,.cls-3,.cls-7{fill:#fff;opacity:0.3;}.cls-1,.cls-2,.cls-3,.cls-4,.cls-5,.cls-6,.cls-7{stroke:#5a5c71;stroke-miterlimit:10;}.cls-1,.cls-2{stroke-width:1.9px;}.cls-2,.cls-4,.cls-5,.cls-6{fill:none;}.cls-3,.cls-4{stroke-width:1.62px;}.cls-5{stroke-width:1.14px;}.cls-6,.cls-7{stroke-width:1.4px;}</style></defs><ellipse class="cls-1" cx="11.17" cy="11.07" rx="10.22" ry="6.01"/><ellipse class="cls-2" cx="11.17" cy="11.07" rx="10.22" ry="6.01"/><path class="cls-3" d="M83.05,9.49a14.32,14.32,0,0,0-3,.32H79c-1.93-2-5.6-3.39-9.82-3.39C63,6.42,58,9.4,58,13.08s5,6.66,11.27,6.66a18.11,18.11,0,0,0,4.2-.49h1c1.64,2.12,4.88,3.56,8.61,3.56,5.38,0,9.74-3,9.74-6.66S88.43,9.49,83.05,9.49Z" transform="translate(-7.26 -5.61)"/><path class="cls-4" d="M83.05,9.49a14.32,14.32,0,0,0-3,.32H79c-1.93-2-5.6-3.39-9.82-3.39C63,6.42,58,9.4,58,13.08s5,6.66,11.27,6.66a18.11,18.11,0,0,0,4.2-.49h1c1.64,2.12,4.88,3.56,8.61,3.56,5.38,0,9.74-3,9.74-6.66S88.43,9.49,83.05,9.49Z" transform="translate(-7.26 -5.61)"/><line class="cls-5" x1="28.53" y1="88.39" x2="54.53" y2="88.39"/><circle class="cls-6" cx="41.53" cy="52.68" r="25.69"/><line class="cls-6" x1="41.53" y1="52.68" x2="29.03" y2="87.89"/><line class="cls-6" x1="54.03" y1="87.89" x2="41.53" y2="52.68"/><circle class="cls-7" cx="41.53" cy="26.99" r="5.31"/><circle class="cls-7" cx="67.22" cy="52.68" r="5.31"/><circle class="cls-7" cx="15.85" cy="52.68" r="5.31"/><circle class="cls-7" cx="22.93" cy="34.96" r="5.31"/><circle class="cls-7" cx="60.13" cy="34.96" r="5.31"/><circle class="cls-7" cx="60.13" cy="71.28" r="5.31"/><circle class="cls-7" cx="22.93" cy="70.39" r="5.31"/><circle class="cls-6" cx="41.53" cy="26.99" r="5.31"/><circle class="cls-6" cx="67.22" cy="52.68" r="5.31"/><circle class="cls-6" cx="15.85" cy="52.68" r="5.31"/><circle class="cls-6" cx="22.93" cy="34.96" r="5.31"/><circle class="cls-6" cx="60.13" cy="34.96" r="5.31"/><circle class="cls-6" cx="60.13" cy="71.28" r="5.31"/><circle class="cls-6" cx="22.93" cy="70.39" r="5.31"/></svg>