<svg xmlns="http://www.w3.org/2000/svg" viewBox="0 0 98.41 92.29"><defs><style>.cls-1{fill:#fff;}.cls-1,.cls-2,.cls-3,.cls-6{stroke:#f6f6f6;stroke-miterlimit:10;}.cls-1,.cls-2{stroke-width:1.9px;}.cls-1,.cls-4{opacity:0.3;}.cls-2,.cls-3,.cls-6{fill:none;}.cls-3{stroke-width:2px;}.cls-4,.cls-5{fill:#f6f6f6;}.cls-6{stroke-width:2.44px;}</style></defs><g id="Layer_2" data-name="Layer 2"><g id="Layer_2-2" data-name="Layer 2"><ellipse class="cls-1" cx="16.64" cy="6.96" rx="10.22" ry="6.01"/><ellipse class="cls-2" cx="16.64" cy="6.96" rx="10.22" ry="6.01"/><path class="cls-3" d="M1,60.29S6.17,21,27.58,21,52,54.29,52,54.29"/><path class="cls-3" d="M43.8,30C48.27,19.72,56,9,68.65,9c24.35,0,28.76,40,28.76,40"/><path class="cls-4" d="M82.56,63.46a7.6,7.6,0,0,0-4.78-2.66c-2.28-.26-4.71.69-7.23,2.8-9.19,7.67-16.77.18-16.84.1-.27-.28-6-6.25-12.48-.18A11.21,11.21,0,0,1,33.15,67a12,12,0,0,1-7.64-3.45c-.54-.45-6.35-5.1-12.41,0A11.63,11.63,0,0,1,0,65.25v27H98V66.35a7.39,7.39,0,0,1-5.12,2A13.93,13.93,0,0,1,82.56,63.46Z"/><path class="cls-5" d="M92.88,65.9A11.64,11.64,0,0,1,84.5,62a10,10,0,0,0-6.41-3.59c-3-.34-6,.78-9.11,3.34-7.43,6.22-13.29.51-13.51.29a12.37,12.37,0,0,0-7.9-3.66,11.05,11.05,0,0,0-8,3.39c-6.44,6.08-12.08.3-12.31.06l-.08-.09c-.08-.06-7.79-6.67-15.64,0A9.49,9.49,0,0,1,0,62.53v2.72a11.63,11.63,0,0,0,13.1-1.69c6.06-5.14,11.87-.49,12.41,0A12,12,0,0,0,33.15,67a11.21,11.21,0,0,0,8.08-3.45c6.45-6.07,12.21-.1,12.48.18.07.08,7.65,7.57,16.84-.1,2.52-2.11,5-3.06,7.23-2.8a7.6,7.6,0,0,1,4.78,2.66,13.93,13.93,0,0,0,10.32,4.88,7.39,7.39,0,0,0,5.12-2V62.26A5.7,5.7,0,0,1,92.88,65.9Z"/><path class="cls-6" d="M13,78.29s8-1,7-5c0,0,5.32,1,3.66,5"/><path class="cls-6" d="M60,84.29s1-4,5-4c0,0,1,7,3,5"/><path class="cls-4" d="M77.19,32.9a.1.1,0,0,1,0,.05c.38.36,2.42,2.46.61,2.93s-1.26-2.23-1.14-2.77h-.05c-.22.44-1.6,3.07-2.61,1.48s1.79-1.89,2.3-1.94h0s0,0,0,0c-.42-.06-3.46-.55-2.25-2s2.35,1.11,2.56,1.59h0c-.08-.42-.55-3.46,1.23-2.76s-.29,2.54-.71,2.91l0,.05c.43-.23,3.1-1.56,3,.32S77.69,33.2,77.19,32.9Z"/><path class="cls-4" d="M86.17,29.77a.13.13,0,0,1,0,.05c.36.34,2.29,2.33.57,2.77S85.52,30.48,85.64,30l0,0c-.21.42-1.52,2.91-2.47,1.41s1.69-1.79,2.18-1.84h0v0c-.4-.06-3.27-.52-2.12-1.92s2.22,1.05,2.42,1.5h0c-.07-.4-.51-3.28,1.17-2.62s-.27,2.41-.67,2.76l0,0c.4-.21,2.93-1.47,2.83.31S86.65,30.05,86.17,29.77Z"/><path class="cls-4" d="M79.33,22l0,.07c.59.59,3.88,4,1,4.72s-2-3.59-1.84-4.46l-.08,0c-.35.71-2.57,4.95-4.2,2.39s2.88-3.05,3.71-3.13a0,0,0,0,1,0,0s0,0,0-.05c-.68-.1-5.57-.89-3.62-3.26S78,20,78.35,20.76h.08c-.12-.68-.88-5.57,2-4.45S80,20.4,79.27,21l0,.08c.69-.37,5-2.51,4.81.52S80.14,22.44,79.33,22Z"/></g></g></svg>