<svg id="Layer_1" data-name="Layer 1" xmlns="http://www.w3.org/2000/svg" viewBox="0 0 97.4 89.39"><defs><style>.cls-1{fill:#fff;opacity:0.3;}.cls-1,.cls-2,.cls-3,.cls-4{stroke:#5a5c71;stroke-miterlimit:10;}.cls-1,.cls-2{stroke-width:1.9px;}.cls-2,.cls-3,.cls-4{fill:none;}.cls-3{stroke-width:2px;}.cls-4{stroke-width:2.44px;}</style></defs><ellipse class="cls-1" cx="15.63" cy="6.96" rx="10.22" ry="6.01"/><ellipse class="cls-2" cx="15.63" cy="6.96" rx="10.22" ry="6.01"/><path class="cls-3" d="M2.72,62.67S7.89,23.36,29.3,23.36,53.72,56.67,53.72,56.67" transform="translate(-1.73 -5.39)"/><path class="cls-3" d="M44.52,31.43C49,21.1,56.7,10.34,69.37,10.34c24.35,0,28.76,40,28.76,40" transform="translate(-1.73 -5.39)"/><path class="cls-3" d="M44.52,31.43" transform="translate(-1.73 -5.39)"/><path class="cls-3" d="M39,50.1" transform="translate(-1.73 -5.39)"/><path class="cls-4" d="M19.05,58.67S10.84,76.13,36.83,79.4c0,0,20.52,0,21.89,15.27" transform="translate(-1.73 -5.39)"/><path class="cls-4" d="M43.05,54.67S34.84,72.13,60.83,75.4c0,0,20.52,0,21.89,15.27" transform="translate(-1.73 -5.39)"/></svg>