<svg id="Layer_1" data-name="Layer 1" xmlns="http://www.w3.org/2000/svg" viewBox="0 0 94 87.31"><defs><style>.cls-1,.cls-3,.cls-4,.cls-5{fill:none;}.cls-1,.cls-2,.cls-3,.cls-5,.cls-7{stroke:#5a5c71;}.cls-1,.cls-2,.cls-3,.cls-4,.cls-5,.cls-6,.cls-7{stroke-miterlimit:10;}.cls-1{stroke-width:1.69px;}.cls-2,.cls-6,.cls-7{fill:#fff;opacity:0.3;}.cls-2,.cls-3{stroke-width:0.84px;}.cls-4,.cls-6{stroke:#f6f6f6;}.cls-4{stroke-width:0.97px;}.cls-5,.cls-6,.cls-7{stroke-width:2px;}</style></defs><path class="cls-1" d="M43.61,13.17" transform="translate(-3.43 -6.43)"/><path class="cls-1" d="M33.49,23.29" transform="translate(-3.43 -6.43)"/><path class="cls-1" d="M65.53,22.45V41a4.21,4.21,0,0,1-4.22,4.21H37.7A4.2,4.2,0,0,1,33.49,41V23.29" transform="translate(-3.43 -6.43)"/><path class="cls-1" d="M56.15,13.17" transform="translate(-3.43 -6.43)"/><path class="cls-1" d="M43.61,13.17" transform="translate(-3.43 -6.43)"/><polyline class="cls-1" points="68 21.92 46.92 0.84 46.08 0.84 40.18 6.75 25 21.92"/><rect class="cls-2" x="42.28" y="10.54" width="8.43" height="8.43" rx="2"/><rect class="cls-3" x="42.28" y="10.54" width="8.43" height="8.43" rx="2"/><path class="cls-2" d="M46.13,45.21V34.67c0-1.39,1.7-2.53,3.8-2.53h0c2.09,0,3.79,1.14,3.79,2.53V45.21" transform="translate(-3.43 -6.43)"/><path class="cls-3" d="M46.13,45.21V34.67c0-1.39,1.7-2.53,3.8-2.53h0c2.09,0,3.79,1.14,3.79,2.53V45.21" transform="translate(-3.43 -6.43)"/><line class="cls-3" x1="46.5" y1="18.55" x2="46.5" y2="10.12"/><line class="cls-3" x1="50.72" y1="14.75" x2="42.28" y2="14.75"/><path class="cls-4" d="M46.93,43.74" transform="translate(-3.43 -6.43)"/><path class="cls-4" d="M52.93,43.74" transform="translate(-3.43 -6.43)"/><path class="cls-5" d="M55.91,47.08c0,.12,1.53,6.73,2.52,14.66s-13,8-18.49,7.88-3.51,12.12-.39,18.12c1.07,2.07-.15,3.9-2.26,5H49.6c-2.2-5.46,3.83-13,3.83-13s1-6,5-5.88,3,3.88,3,6.88,8,6,9-1,3-15,8-15,9,7,9,17c0,4.09-2.34,8-6.19,11H96.43A46,46,0,0,0,55.91,47.08Z" transform="translate(-3.43 -6.43)"/><path class="cls-6" d="M25.43,87.74a6.24,6.24,0,0,0,3,5h8.89c2.11-1.1,3.33-2.93,2.26-5-3.12-6-5.09-18.23.39-18.12s19.49.12,18.49-7.88S55.94,47.2,55.91,47.08a47.15,47.15,0,0,0-5.48-.34A46,46,0,0,0,8.76,73.24C8.93,73.29,24.43,77.8,25.43,87.74Z" transform="translate(-3.43 -6.43)"/><path class="cls-5" d="M25.43,87.74a6.24,6.24,0,0,0,3,5h8.89c2.11-1.1,3.33-2.93,2.26-5-3.12-6-5.09-18.23.39-18.12s19.49.12,18.49-7.88S55.94,47.2,55.91,47.08a47.15,47.15,0,0,0-5.48-.34A46,46,0,0,0,8.76,73.24C8.93,73.29,24.43,77.8,25.43,87.74Z" transform="translate(-3.43 -6.43)"/><path class="cls-5" d="M25.43,87.74c-1-9.94-16.5-14.45-16.67-14.5a45.9,45.9,0,0,0-4.33,19.5h24A6.24,6.24,0,0,1,25.43,87.74Z" transform="translate(-3.43 -6.43)"/><path class="cls-7" d="M87.43,81.74c0-10-4-17-9-17s-7,8-8,15-9,4-9,1,1.1-6.76-3-6.88-5,5.88-5,5.88-6,7.54-3.83,13H81.24C85.09,89.74,87.43,85.83,87.43,81.74Z" transform="translate(-3.43 -6.43)"/><path class="cls-5" d="M87.43,81.74c0-10-4-17-9-17s-7,8-8,15-9,4-9,1,1.1-6.76-3-6.88-5,5.88-5,5.88-6,7.54-3.83,13H81.24C85.09,89.74,87.43,85.83,87.43,81.74Z" transform="translate(-3.43 -6.43)"/></svg>