<?xml version="1.0" encoding="utf-8"?>
<!-- Generator: Adobe Illustrator 25.2.3, SVG Export Plug-In . SVG Version: 6.00 Build 0)  -->
<svg version="1.1" id="Layer_1" xmlns="http://www.w3.org/2000/svg" xmlns:xlink="http://www.w3.org/1999/xlink" x="0px" y="0px"
	 viewBox="0 0 100 100" style="enable-background:new 0 0 100 100;" xml:space="preserve">
<style type="text/css">
	.st0{fill:none;stroke:#F6F6F6;stroke-width:1.6863;stroke-miterlimit:10;}
	.st1{opacity:0.3;fill:#FFFFFF;stroke:#F6F6F6;stroke-width:0.8431;stroke-miterlimit:10;}
	.st2{fill:none;stroke:#F6F6F6;stroke-width:0.8431;stroke-miterlimit:10;}
	.st3{fill:none;stroke:#F6F6F6;stroke-width:0.9701;stroke-miterlimit:10;}
	.st4{fill:none;stroke:#F6F6F6;stroke-width:2;stroke-miterlimit:10;}
	.st5{opacity:0.3;fill:#FFFFFF;stroke:#F6F6F6;stroke-width:2;stroke-miterlimit:10;}
</style>
<g>
	<g>
		<path class="st0" d="M43.61,13.17"/>
		<path class="st0" d="M33.49,23.29"/>
		<path class="st0" d="M65.53,22.45V41c0,2.33-1.89,4.22-4.22,4.22H37.7c-2.33,0-4.22-1.89-4.22-4.22V23.29"/>
		<path class="st0" d="M56.15,13.17"/>
		<path class="st0" d="M43.61,13.17"/>
		<polyline class="st0" points="71.43,28.35 50.35,7.27 49.51,7.27 43.61,13.17 28.43,28.35 		"/>
		<path class="st1" d="M47.71,16.97h4.43c1.1,0,2,0.9,2,2v4.43c0,1.1-0.9,2-2,2h-4.43c-1.1,0-2-0.9-2-2v-4.43
			C45.71,17.86,46.61,16.97,47.71,16.97z"/>
		<path class="st2" d="M47.71,16.97h4.43c1.1,0,2,0.9,2,2v4.43c0,1.1-0.9,2-2,2h-4.43c-1.1,0-2-0.9-2-2v-4.43
			C45.71,17.86,46.61,16.97,47.71,16.97z"/>
		<path class="st1" d="M46.13,45.21V34.67c0-1.4,1.7-2.53,3.79-2.53h0c2.1,0,3.79,1.13,3.79,2.53v10.54"/>
		<path class="st2" d="M46.13,45.21V34.67c0-1.4,1.7-2.53,3.79-2.53h0c2.1,0,3.79,1.13,3.79,2.53v10.54"/>
		<line class="st2" x1="49.93" y1="24.98" x2="49.93" y2="16.55"/>
		<line class="st2" x1="54.14" y1="21.18" x2="45.71" y2="21.18"/>
	</g>
	<path class="st3" d="M46.93,43.74"/>
	<path class="st3" d="M52.93,43.74"/>
	<path class="st4" d="M55.91,47.08c0.03,0.12,1.53,6.74,2.52,14.66c1,8-13,8-18.49,7.88c-5.49-0.12-3.51,12.12-0.4,18.12
		c1.07,2.07-0.15,3.9-2.26,5H49.6c-2.2-5.46,3.83-13,3.83-13s1-6,5.05-5.88c4.05,0.12,2.95,3.88,2.95,6.88s8,6,9-1s3-15,8-15
		s9,7,9,17c0,4.08-2.34,8-6.19,11h15.19C96.43,69.19,78.73,49.79,55.91,47.08z"/>
	<path class="st5" d="M25.43,87.74c0.24,2.45,1.41,4.05,2.97,5h8.89c2.11-1.1,3.33-2.93,2.26-5c-3.12-6-5.09-18.24,0.4-18.12
		c5.49,0.12,19.49,0.12,18.49-7.88c-0.99-7.93-2.49-14.55-2.52-14.66c-1.8-0.21-3.63-0.34-5.48-0.34C32,46.74,16.1,57.59,8.76,73.24
		C8.93,73.29,24.43,77.8,25.43,87.74z"/>
	<path class="st4" d="M25.43,87.74c0.24,2.45,1.41,4.05,2.97,5h8.89c2.11-1.1,3.33-2.93,2.26-5c-3.12-6-5.09-18.24,0.4-18.12
		c5.49,0.12,19.49,0.12,18.49-7.88c-0.99-7.93-2.49-14.55-2.52-14.66c-1.8-0.21-3.63-0.34-5.48-0.34C32,46.74,16.1,57.59,8.76,73.24
		C8.93,73.29,24.43,77.8,25.43,87.74z"/>
	<path class="st4" d="M25.43,87.74c-0.99-9.95-16.5-14.45-16.66-14.5c-2.78,5.92-4.34,12.53-4.34,19.5H28.4
		C26.84,91.8,25.67,90.19,25.43,87.74z"/>
	<path class="st5" d="M87.43,81.74c0-10-4-17-9-17s-7,8-8,15s-9,4-9,1s1.1-6.76-2.95-6.88c-4.05-0.12-5.05,5.88-5.05,5.88
		s-6.03,7.54-3.83,13h31.64C85.09,89.74,87.43,85.83,87.43,81.74z"/>
	<path class="st4" d="M87.43,81.74c0-10-4-17-9-17s-7,8-8,15s-9,4-9,1s1.1-6.76-2.95-6.88c-4.05-0.12-5.05,5.88-5.05,5.88
		s-6.03,7.54-3.83,13h31.64C85.09,89.74,87.43,85.83,87.43,81.74z"/>
</g>
</svg>
