<svg xmlns="http://www.w3.org/2000/svg" xmlns:xlink="http://www.w3.org/1999/xlink" width="80" height="23" viewBox="0 0 80 23">
    <defs>
        <path id="a" d="M0 22.73h79.753V0H0z"/>
    </defs>
    <g fill="none" fill-rule="evenodd">
        <path fill="#FF3478" d="M50.333 13.29c-.62.646-1.401.971-2.335.971-.938 0-1.712-.32-2.323-.959-.611-.64-.916-1.474-.916-2.51 0-1.002.31-1.824.927-2.469.619-.643 1.393-.966 2.323-.966.949 0 1.729.32 2.339.953.614.64.919 1.467.919 2.483 0 1.017-.31 1.848-.934 2.496m.797-7.894a6.325 6.325 0 0 0-3.172-.84c-1.553 0-2.932.537-4.128 1.615-1.366 1.234-2.05 2.78-2.05 4.634 0 1.73.605 3.201 1.814 4.412 1.21 1.212 2.664 1.818 4.375 1.818a6.333 6.333 0 0 0 3.188-.825 6.063 6.063 0 0 0 2.284-2.285 6.247 6.247 0 0 0 .834-3.142c0-1.112-.272-2.149-.83-3.11a6.081 6.081 0 0 0-2.315-2.277"/>
        <mask id="b" fill="#fff">
            <use xlink:href="#a"/>
        </mask>
        <path fill="#FF3478" d="M56.343 16.92h2.972V0h-2.972zM65.154 4.654h-2.98v10.66c0 3.129-.174 4.2-2.58 4.403v3.013c5.597 0 5.56-4.552 5.56-6.593V4.654zM23.388 12.098c-.178.409-.423.77-.727 1.07a3.382 3.382 0 0 1-1.074.722 3.39 3.39 0 0 1-2.609 0 3.405 3.405 0 0 1-1.8-1.794 3.244 3.244 0 0 1-.263-1.3 3.369 3.369 0 0 1 5.746-2.392 3.37 3.37 0 0 1 .988 2.392c0 .463-.09.899-.261 1.302m1.32-5.732a6.335 6.335 0 0 0-2.017-1.344 6.295 6.295 0 0 0-4.818 0 6.207 6.207 0 0 0-2.018 1.35 6.111 6.111 0 0 0-1.36 2.03 6.226 6.226 0 0 0-.006 4.768 6.316 6.316 0 0 0 1.366 2.036 6.317 6.317 0 0 0 2.018 1.348c.76.32 1.569.48 2.41.48 2.067 0 3.366-1.363 3.366-1.363v1.246h2.895v-6.12c0-.83-.159-1.637-.47-2.395a6.166 6.166 0 0 0-1.366-2.036M76.598 12.098a3.42 3.42 0 0 1-.724 1.07 3.433 3.433 0 0 1-1.075.722 3.4 3.4 0 0 1-2.612 0 3.404 3.404 0 0 1-1.801-1.794 3.249 3.249 0 0 1-.26-1.3c0-.462.088-.905.263-1.311a3.358 3.358 0 0 1 3.103-2.063c.462 0 .903.09 1.307.261.409.177.77.418 1.075.721.303.305.546.665.724 1.082.172.405.26.848.26 1.31 0 .463-.088.899-.26 1.302m1.321-5.732a6.296 6.296 0 0 0-6.837-1.344 6.22 6.22 0 0 0-2.018 1.35 6.15 6.15 0 0 0-1.36 2.03 6.234 6.234 0 0 0-.005 4.768 6.348 6.348 0 0 0 1.365 2.036 6.331 6.331 0 0 0 2.018 1.348c.76.32 1.572.48 2.41.48 2.068 0 3.367-1.363 3.367-1.363v1.246h2.894v-6.12c0-.83-.158-1.637-.467-2.395a6.239 6.239 0 0 0-1.367-2.036M31.876 10.973v5.947h-2.974V4.67h3V5.73a3.15 3.15 0 0 1 .656-.489 5.292 5.292 0 0 1 1.682-.617c.294-.054.583-.08.856-.08a5.34 5.34 0 0 1 1.746.286 4.22 4.22 0 0 1 1.486.884c.432.398.78.912 1.041 1.542.261.63.392 1.385.392 2.25v7.413h-2.97v-6.646a8.43 8.43 0 0 0-.04-.86 5.918 5.918 0 0 0-.067-.421c-.22-1.144-1.265-1.932-2.34-1.835 0 0-1.488.055-2.112 1.439 0 0-.373.647-.356 2.376M8.532 16.73l5.272-12.076h-3.407l-3.51 8.271-3.48-8.27H0L5.224 16.73l-2.62 5.999h3.31l2.615-5.995h.004z" mask="url(#b)"/>
    </g>
</svg>
